<?xml version="1.0" standalone="no"?>
<!DOCTYPE svg PUBLIC "-//W3C//DTD SVG 20010904//EN"
 "http://www.w3.org/TR/2001/REC-SVG-20010904/DTD/svg10.dtd">
<svg version="1.0" xmlns="http://www.w3.org/2000/svg"
 width="1238.000000pt" height="1280.000000pt" viewBox="0 0 1238.000000 1280.000000"
 preserveAspectRatio="xMidYMid meet">
<g transform="translate(0.000000,1280.000000) scale(0.100000,-0.100000)"
fill="#000000" stroke="none">
<path d="M6185 12525 c-40 -223 -94 -414 -182 -635 -437 -1104 -1482 -2391
-3073 -3786 -1043 -913 -1938 -1490 -2590 -1670 l-115 -32 60 -11 c482 -93
1002 -339 1587 -748 754 -528 1586 -1328 2474 -2378 1009 -1195 1658 -2245
1820 -2947 10 -43 19 -76 21 -75 1 2 12 51 23 109 154 800 742 1782 1704 2848
413 456 973 1002 1536 1496 1038 909 1942 1493 2583 1668 l122 34 -60 11
c-455 88 -925 302 -1475 672 -717 481 -1471 1178 -2306 2129 -1172 1337 -1888
2448 -2095 3250 -26 102 -27 104 -34 65z"/>
</g>
</svg>
